<?xml version="1.0" encoding="UTF-8" standalone="no"?><svg xmlns="http://www.w3.org/2000/svg" xmlns:xlink="http://www.w3.org/1999/xlink" contentScriptType="application/ecmascript" contentStyleType="text/css" height="408px" preserveAspectRatio="none" style="width:454px;height:408px;" version="1.1" viewBox="0 0 454 408" width="454px" zoomAndPan="magnify"><defs><filter height="300%" id="f1oc55xkr703tf" width="300%" x="-1" y="-1"><feGaussianBlur result="blurOut" stdDeviation="2.0"/><feColorMatrix in="blurOut" result="blurOut2" type="matrix" values="0 0 0 0 0 0 0 0 0 0 0 0 0 0 0 0 0 0 .4 0"/><feOffset dx="4.0" dy="4.0" in="blurOut2" result="blurOut3"/><feBlend in="SourceGraphic" in2="blurOut3" mode="normal"/></filter></defs><g><!--MD5=[d8cd3351cc2af79056e02c012aa38c91]
cluster de.hbaechmann.mps.simplestuff--><polygon fill="#FFFFFF" filter="url(#f1oc55xkr703tf)" points="86.5,172,349.5,172,356.5,194.2969,359.5,194.2969,359.5,396,86.5,396,86.5,172" style="stroke: #000000; stroke-width: 1.5;"/><line style="stroke: #000000; stroke-width: 1.5;" x1="86.5" x2="356.5" y1="194.2969" y2="194.2969"/><text fill="#000000" font-family="sans-serif" font-size="14" font-weight="bold" lengthAdjust="spacingAndGlyphs" textLength="257" x="90.5" y="186.9951">de.hbaechmann.mps.simplestuff</text><!--MD5=[3e4eb270815fa791c6063aa90a990609]
cluster MPS--><polygon fill="#FFFFFF" filter="url(#f1oc55xkr703tf)" points="108.5,24,147.5,24,154.5,46.2969,416.5,46.2969,416.5,123,108.5,123,108.5,24" style="stroke: #000000; stroke-width: 1.5;"/><line style="stroke: #000000; stroke-width: 1.5;" x1="108.5" x2="154.5" y1="46.2969" y2="46.2969"/><text fill="#000000" font-family="sans-serif" font-size="14" font-weight="bold" lengthAdjust="spacingAndGlyphs" textLength="33" x="112.5" y="38.9951">MPS</text><!--MD5=[2a5b51841118c7956eda0c2646863cd5]
class de.hbaechmann.mps.simplestuff.openapi--><rect fill="#FFFFFF" filter="url(#f1oc55xkr703tf)" height="48" id="de.hbaechmann.mps.simplestuff.openapi" style="stroke: #A80036; stroke-width: 1.5;" width="83" x="129" y="332"/><rect fill="#FFFFFF" height="32" style="stroke: #A80036; stroke-width: 1.5;" width="83" x="129" y="332"/><ellipse cx="144" cy="348" fill="#ADD1B2" rx="11" ry="11" style="stroke: #A80036; stroke-width: 1.0;"/><path d="M146.9688,353.6406 Q146.3906,353.9375 145.75,354.0781 Q145.1094,354.2344 144.4063,354.2344 Q141.9063,354.2344 140.5781,352.5938 Q139.2656,350.9375 139.2656,347.8125 Q139.2656,344.6875 140.5781,343.0313 Q141.9063,341.375 144.4063,341.375 Q145.1094,341.375 145.75,341.5313 Q146.4063,341.6875 146.9688,341.9844 L146.9688,344.7031 Q146.3438,344.125 145.75,343.8594 Q145.1563,343.5781 144.5313,343.5781 Q143.1875,343.5781 142.5,344.6563 Q141.8125,345.7188 141.8125,347.8125 Q141.8125,349.9063 142.5,350.9844 Q143.1875,352.0469 144.5313,352.0469 Q145.1563,352.0469 145.75,351.7813 Q146.3438,351.5 146.9688,350.9219 L146.9688,353.6406 Z "/><text fill="#000000" font-family="sans-serif" font-size="12" lengthAdjust="spacingAndGlyphs" textLength="51" x="158" y="352.1543">openapi</text><line style="stroke: #A80036; stroke-width: 1.5;" x1="130" x2="211" y1="364" y2="364"/><line style="stroke: #A80036; stroke-width: 1.5;" x1="130" x2="211" y1="372" y2="372"/><!--MD5=[0953d52684f28d9428a1f5f7e97962da]
class de.hbaechmann.mps.simplestuff.util--><rect fill="#FFFFFF" filter="url(#f1oc55xkr703tf)" height="48" id="de.hbaechmann.mps.simplestuff.util" style="stroke: #A80036; stroke-width: 1.5;" width="51" x="124" y="207"/><rect fill="#FFFFFF" height="32" style="stroke: #A80036; stroke-width: 1.5;" width="51" x="124" y="207"/><ellipse cx="139" cy="223" fill="#ADD1B2" rx="11" ry="11" style="stroke: #A80036; stroke-width: 1.0;"/><path d="M141.9688,228.6406 Q141.3906,228.9375 140.75,229.0781 Q140.1094,229.2344 139.4063,229.2344 Q136.9063,229.2344 135.5781,227.5938 Q134.2656,225.9375 134.2656,222.8125 Q134.2656,219.6875 135.5781,218.0313 Q136.9063,216.375 139.4063,216.375 Q140.1094,216.375 140.75,216.5313 Q141.4063,216.6875 141.9688,216.9844 L141.9688,219.7031 Q141.3438,219.125 140.75,218.8594 Q140.1563,218.5781 139.5313,218.5781 Q138.1875,218.5781 137.5,219.6563 Q136.8125,220.7188 136.8125,222.8125 Q136.8125,224.9063 137.5,225.9844 Q138.1875,227.0469 139.5313,227.0469 Q140.1563,227.0469 140.75,226.7813 Q141.3438,226.5 141.9688,225.9219 L141.9688,228.6406 Z "/><text fill="#000000" font-family="sans-serif" font-size="12" lengthAdjust="spacingAndGlyphs" textLength="19" x="153" y="227.1543">util</text><line style="stroke: #A80036; stroke-width: 1.5;" x1="125" x2="174" y1="239" y2="239"/><line style="stroke: #A80036; stroke-width: 1.5;" x1="125" x2="174" y1="247" y2="247"/><!--MD5=[8e4c95955bad94e98d00570a9c9de5a5]
class MPS.OpenAPI--><rect fill="#FEFECE" filter="url(#f1oc55xkr703tf)" height="48" id="MPS.OpenAPI" style="stroke: #A80036; stroke-width: 1.5;" width="84" x="316.5" y="59"/><ellipse cx="331.5" cy="75" fill="#ADD1B2" rx="11" ry="11" style="stroke: #A80036; stroke-width: 1.0;"/><path d="M334.4688,80.6406 Q333.8906,80.9375 333.25,81.0781 Q332.6094,81.2344 331.9063,81.2344 Q329.4063,81.2344 328.0781,79.5938 Q326.7656,77.9375 326.7656,74.8125 Q326.7656,71.6875 328.0781,70.0313 Q329.4063,68.375 331.9063,68.375 Q332.6094,68.375 333.25,68.5313 Q333.9063,68.6875 334.4688,68.9844 L334.4688,71.7031 Q333.8438,71.125 333.25,70.8594 Q332.6563,70.5781 332.0313,70.5781 Q330.6875,70.5781 330,71.6563 Q329.3125,72.7188 329.3125,74.8125 Q329.3125,76.9063 330,77.9844 Q330.6875,79.0469 332.0313,79.0469 Q332.6563,79.0469 333.25,78.7813 Q333.8438,78.5 334.4688,77.9219 L334.4688,80.6406 Z "/><text fill="#000000" font-family="sans-serif" font-size="12" lengthAdjust="spacingAndGlyphs" textLength="52" x="345.5" y="79.1543">OpenAPI</text><line style="stroke: #A80036; stroke-width: 1.5;" x1="317.5" x2="399.5" y1="91" y2="91"/><line style="stroke: #A80036; stroke-width: 1.5;" x1="317.5" x2="399.5" y1="99" y2="99"/><!--MD5=[b4e2182832af88ab6022c978231ef04b]
class MPS.Core--><rect fill="#FEFECE" filter="url(#f1oc55xkr703tf)" height="48" id="MPS.Core" style="stroke: #A80036; stroke-width: 1.5;" width="61" x="220" y="59"/><ellipse cx="235" cy="75" fill="#ADD1B2" rx="11" ry="11" style="stroke: #A80036; stroke-width: 1.0;"/><path d="M237.9688,80.6406 Q237.3906,80.9375 236.75,81.0781 Q236.1094,81.2344 235.4063,81.2344 Q232.9063,81.2344 231.5781,79.5938 Q230.2656,77.9375 230.2656,74.8125 Q230.2656,71.6875 231.5781,70.0313 Q232.9063,68.375 235.4063,68.375 Q236.1094,68.375 236.75,68.5313 Q237.4063,68.6875 237.9688,68.9844 L237.9688,71.7031 Q237.3438,71.125 236.75,70.8594 Q236.1563,70.5781 235.5313,70.5781 Q234.1875,70.5781 233.5,71.6563 Q232.8125,72.7188 232.8125,74.8125 Q232.8125,76.9063 233.5,77.9844 Q234.1875,79.0469 235.5313,79.0469 Q236.1563,79.0469 236.75,78.7813 Q237.3438,78.5 237.9688,77.9219 L237.9688,80.6406 Z "/><text fill="#000000" font-family="sans-serif" font-size="12" lengthAdjust="spacingAndGlyphs" textLength="29" x="249" y="79.1543">Core</text><line style="stroke: #A80036; stroke-width: 1.5;" x1="221" x2="280" y1="91" y2="91"/><line style="stroke: #A80036; stroke-width: 1.5;" x1="221" x2="280" y1="99" y2="99"/><!--MD5=[eb51255daf2aebe02bd0ff8353714ea5]
class MPS.IDEA--><rect fill="#FEFECE" filter="url(#f1oc55xkr703tf)" height="48" id="MPS.IDEA" style="stroke: #A80036; stroke-width: 1.5;" width="60" x="124.5" y="59"/><ellipse cx="139.5" cy="75" fill="#ADD1B2" rx="11" ry="11" style="stroke: #A80036; stroke-width: 1.0;"/><path d="M142.4688,80.6406 Q141.8906,80.9375 141.25,81.0781 Q140.6094,81.2344 139.9063,81.2344 Q137.4063,81.2344 136.0781,79.5938 Q134.7656,77.9375 134.7656,74.8125 Q134.7656,71.6875 136.0781,70.0313 Q137.4063,68.375 139.9063,68.375 Q140.6094,68.375 141.25,68.5313 Q141.9063,68.6875 142.4688,68.9844 L142.4688,71.7031 Q141.8438,71.125 141.25,70.8594 Q140.6563,70.5781 140.0313,70.5781 Q138.6875,70.5781 138,71.6563 Q137.3125,72.7188 137.3125,74.8125 Q137.3125,76.9063 138,77.9844 Q138.6875,79.0469 140.0313,79.0469 Q140.6563,79.0469 141.25,78.7813 Q141.8438,78.5 142.4688,77.9219 L142.4688,80.6406 Z "/><text fill="#000000" font-family="sans-serif" font-size="12" lengthAdjust="spacingAndGlyphs" textLength="28" x="153.5" y="79.1543">IDEA</text><line style="stroke: #A80036; stroke-width: 1.5;" x1="125.5" x2="183.5" y1="91" y2="91"/><line style="stroke: #A80036; stroke-width: 1.5;" x1="125.5" x2="183.5" y1="99" y2="99"/><!--MD5=[b2c078878a21f27f8a05a79545e0ea5c]
class JDK--><rect fill="#FEFECE" filter="url(#f1oc55xkr703tf)" height="48" id="JDK" style="stroke: #A80036; stroke-width: 1.5;" width="51" x="6" y="207"/><ellipse cx="21" cy="223" fill="#ADD1B2" rx="11" ry="11" style="stroke: #A80036; stroke-width: 1.0;"/><path d="M23.9688,228.6406 Q23.3906,228.9375 22.75,229.0781 Q22.1094,229.2344 21.4063,229.2344 Q18.9063,229.2344 17.5781,227.5938 Q16.2656,225.9375 16.2656,222.8125 Q16.2656,219.6875 17.5781,218.0313 Q18.9063,216.375 21.4063,216.375 Q22.1094,216.375 22.75,216.5313 Q23.4063,216.6875 23.9688,216.9844 L23.9688,219.7031 Q23.3438,219.125 22.75,218.8594 Q22.1563,218.5781 21.5313,218.5781 Q20.1875,218.5781 19.5,219.6563 Q18.8125,220.7188 18.8125,222.8125 Q18.8125,224.9063 19.5,225.9844 Q20.1875,227.0469 21.5313,227.0469 Q22.1563,227.0469 22.75,226.7813 Q23.3438,226.5 23.9688,225.9219 L23.9688,228.6406 Z "/><text fill="#000000" font-family="sans-serif" font-size="12" lengthAdjust="spacingAndGlyphs" textLength="19" x="35" y="227.1543">JDK</text><line style="stroke: #A80036; stroke-width: 1.5;" x1="7" x2="56" y1="239" y2="239"/><line style="stroke: #A80036; stroke-width: 1.5;" x1="7" x2="56" y1="247" y2="247"/><!--MD5=[988488cfe3b4388a2a9f81769bbf8dc4]
reverse link de.hbaechmann.mps.simplestuff.util to de.hbaechmann.mps.simplestuff.openapi--><path d="M145.05,260.248 C143.848,273.113 143.577,288.459 146.5,302 C148.717,312.2683 153.093,322.9407 157.509,331.9942 " fill="none" id="de.hbaechmann.mps.simplestuff.util&lt;-de.hbaechmann.mps.simplestuff.openapi" style="stroke: #A80036; stroke-width: 1.0;"/><polygon fill="#A80036" points="145.573,255.265,140.6538,263.7974,145.0502,260.2376,148.61,264.6339,145.573,255.265" style="stroke: #A80036; stroke-width: 1.0;"/><text fill="#000000" font-family="sans-serif" font-size="13" lengthAdjust="spacingAndGlyphs" textLength="76" x="147.5" y="298.0669">depends-on</text><!--MD5=[8caabe8f27b978803d910e64270e349d]
reverse link MPS.OpenAPI to de.hbaechmann.mps.simplestuff.openapi--><path d="M363.269,112.27 C367.808,148.384 370.356,211.419 342.5,255 C312.736,301.566 252.989,328.9871 212.365,343.0045 " fill="none" id="MPS.OpenAPI&lt;-de.hbaechmann.mps.simplestuff.openapi" style="stroke: #A80036; stroke-width: 1.0;"/><polygon fill="#A80036" points="362.588,107.143,359.8058,116.5907,363.2453,112.0996,367.7364,115.5391,362.588,107.143" style="stroke: #A80036; stroke-width: 1.0;"/><text fill="#000000" font-family="sans-serif" font-size="13" lengthAdjust="spacingAndGlyphs" textLength="76" x="366.5" y="235.5669">depends-on</text><!--MD5=[49153957f737518081bc94151719a11c]
reverse link JDK to de.hbaechmann.mps.simplestuff.openapi--><path d="M37.1459,260.19 C41.1424,274.148 47.7634,290.44 58.5,302 C77.3112,322.2545 105.4569,335.5291 128.827,343.7277 " fill="none" id="JDK&lt;-de.hbaechmann.mps.simplestuff.openapi" style="stroke: #A80036; stroke-width: 1.0;"/><polygon fill="#A80036" points="35.7895,255.167,34.2729,264.8984,37.0924,259.9943,41.9965,262.8138,35.7895,255.167" style="stroke: #A80036; stroke-width: 1.0;"/><text fill="#000000" font-family="sans-serif" font-size="13" lengthAdjust="spacingAndGlyphs" textLength="76" x="59.5" y="298.0669">depends-on</text><!--MD5=[3040622e25c0c949188d07730b906dbc]
reverse link MPS.Core to de.hbaechmann.mps.simplestuff.openapi--><path d="M253.802,112.195 C257.572,155.515 259.674,239.938 228.5,302 C222.745,313.4577 213.396,323.6469 203.869,331.9545 " fill="none" id="MPS.Core&lt;-de.hbaechmann.mps.simplestuff.openapi" style="stroke: #A80036; stroke-width: 1.0;"/><polygon fill="#A80036" points="253.336,107.12,250.1757,116.448,253.7932,112.0991,258.1422,115.7165,253.336,107.12" style="stroke: #A80036; stroke-width: 1.0;"/><text fill="#000000" font-family="sans-serif" font-size="13" lengthAdjust="spacingAndGlyphs" textLength="76" x="257.5" y="235.5669">depends-on</text><!--MD5=[747eff27076f17d8d6982304c6497e9c]
reverse link MPS.IDEA to de.hbaechmann.mps.simplestuff.util--><path d="M149.573,112.385 C148.308,120.914 147.128,130.313 146.5,139 C144.835,162.018 146.045,188.38 147.392,206.784 " fill="none" id="MPS.IDEA&lt;-de.hbaechmann.mps.simplestuff.util" style="stroke: #A80036; stroke-width: 1.0;"/><polygon fill="#A80036" points="150.367,107.201,145.05,115.4914,149.6097,112.1433,152.9578,116.703,150.367,107.201" style="stroke: #A80036; stroke-width: 1.0;"/><text fill="#000000" font-family="sans-serif" font-size="13" lengthAdjust="spacingAndGlyphs" textLength="76" x="147.5" y="152.0669">depends-on</text><!--MD5=[c2bb0ce25bbd6b782a035dfb7f156877]
@startuml
class de.hbaechmann.mps.simplestuff.openapi #white
class de.hbaechmann.mps.simplestuff.util #white
class MPS.OpenAPI 
class JDK 
class MPS.Core 
class MPS.IDEA 
de.hbaechmann.mps.simplestuff.openapi -u-> de.hbaechmann.mps.simplestuff.util : depends-on
de.hbaechmann.mps.simplestuff.openapi -u-> MPS.OpenAPI : depends-on
de.hbaechmann.mps.simplestuff.openapi -u-> JDK : depends-on
de.hbaechmann.mps.simplestuff.openapi -u-> MPS.Core : depends-on
de.hbaechmann.mps.simplestuff.util -u-> MPS.IDEA : depends-on
@enduml

PlantUML version 1.2019.11(Sun Sep 22 12:02:15 CEST 2019)
(GPL source distribution)
Java Runtime: OpenJDK Runtime Environment
JVM: OpenJDK 64-Bit Server VM
Java Version: 1.8.0_275-8u275-b01-0ubuntu1~16.04-b01
Operating System: Linux
Default Encoding: UTF-8
Language: en
Country: US
--></g></svg>